<svg id="Distance" xmlns="http://www.w3.org/2000/svg" viewBox="0 0 175 150"><defs><style>.cls-1{fill:#fff;}.cls-2{fill:#545459;}</style></defs><title>icons_distance</title><path class="cls-1" d="M130.17031,10.93226a18.35024,18.35024,0,0,0-18.64478,18.68642,30.84053,30.84053,0,0,0,1.50159,8.67584L130.212,75l17.18484-36.70548a30.67189,30.67189,0,0,0,1.50159-8.67584A18.41941,18.41941,0,0,0,130.17031,10.93226Zm.04138,26.69489a8.00847,8.00847,0,1,1,8.00847-8.00847A8.00847,8.00847,0,0,1,130.2117,37.62715Z"/><path class="cls-2" d="M120.02187,70l2.34375,5H95.8447A12.21381,12.21381,0,0,0,83.53476,86.08736,11.92917,11.92917,0,0,0,95.50211,99h16.89c10.42558,0,19.47006,7.785,20.39667,18.1693A20.01576,20.01576,0,0,1,112.87059,139H55.8388l2.38275-5h54.2476c8.23935,0,15.23531-6.74542,14.97434-14.98064A14.40617,14.40617,0,0,0,112.9511,105H95.81994c-7.82126,0-15.81772-6.20218-17.36939-13.868A17.5309,17.5309,0,0,1,95.58262,70Z"/><path class="cls-2" d="M47.49918,66.99153A21.165,21.165,0,0,0,26.10162,88.34745a31.79027,31.79027,0,0,0,1.71008,9.42663l19.64584,41.29366L67.10337,97.77408a31.956,31.956,0,0,0,1.71008-9.42663A21.095,21.095,0,0,0,47.49918,66.99153Zm-.04165,30.69913a9.34321,9.34321,0,1,1,9.34321-9.34321A9.34328,9.34328,0,0,1,47.45753,97.69066Z"/></svg>