<svg id="Distance" xmlns="http://www.w3.org/2000/svg" viewBox="0 0 175 150"><defs><style>.cls-1{fill:#545459;}</style></defs><title>icons_distance</title><path class="cls-1" d="M151.5,58.301a34.09659,34.09659,0,0,0-56.76089-25.5104,2.845,2.845,0,1,0,3.77743,4.25529A28.40647,28.40647,0,0,1,145.81111,58.301c0,19.61955-21.8752,41.30844-28.44444,47.37849a127.067,127.067,0,0,1-19.8144-23.178,2.84469,2.84469,0,0,0-4.79147,3.06774A132.22062,132.22062,0,0,0,115.522,111.66987a2.85159,2.85159,0,0,0,3.68924-.00284C120.52827,110.54489,151.5,83.90382,151.5,58.301Zm-59.73333,0a34.13333,34.13333,0,0,0-68.26667,0c0,25.60284,30.97173,52.24391,32.29013,53.366a2.84316,2.84316,0,0,0,3.6864,0C60.79493,110.54489,91.76667,83.90382,91.76667,58.301ZM57.63191,105.67947c-6.57351-6.06721-28.443-27.73334-28.443-47.37849a28.44444,28.44444,0,0,1,56.88889,0C86.07778,77.92053,64.20258,99.60942,57.63191,105.67947Zm.00142-61.60072A14.22222,14.22222,0,1,0,71.85556,58.301,14.23715,14.23715,0,0,0,57.63333,44.07875Zm0,22.75556A8.53333,8.53333,0,1,1,66.16667,58.301,8.54162,8.54162,0,0,1,57.63333,66.83431ZM131.58889,58.301A14.22222,14.22222,0,1,0,117.36667,72.5232,14.23836,14.23836,0,0,0,131.58889,58.301Zm-22.75556,0a8.53333,8.53333,0,1,1,8.53333,8.53333A8.54193,8.54193,0,0,1,108.83333,58.301ZM64.14711,120.96836a2.84449,2.84449,0,0,0,2.01955,4.864,2.86747,2.86747,0,0,0,2.84444-2.84444,2.84449,2.84449,0,0,0-4.864-2.01955Zm-14.22222,0a2.84449,2.84449,0,1,0,4.03911,0A2.94749,2.94749,0,0,0,49.92489,120.96836Zm28.44445,0a2.84449,2.84449,0,1,0,4.03911,0A2.98832,2.98832,0,0,0,78.36934,120.96836Zm28.44444,0a2.84449,2.84449,0,1,0,4.03911,0A2.98167,2.98167,0,0,0,106.81378,120.96836Zm14.22222,0a2.84449,2.84449,0,1,0,4.03911,0A2.98167,2.98167,0,0,0,121.036,120.96836Zm-28.44444,0a2.98167,2.98167,0,0,0-.82489,2.01955,2.88463,2.88463,0,0,0,.82489,2.01955,3.00047,3.00047,0,0,0,2.01955.82489,2.86613,2.86613,0,0,0,1.98826-.82489,2.83253,2.83253,0,0,0,.85618-2.01955,2.84449,2.84449,0,0,0-4.864-2.01955Z"/></svg>