<svg id="Drag" xmlns="http://www.w3.org/2000/svg" viewBox="0 0 350 300"><defs><style>.cls-1{fill:#545459;}.cls-2{fill:none;stroke:#fff;stroke-miterlimit:10;stroke-width:6px;}.cls-3{fill:#fff;}</style></defs><title>icons_drag</title><path class="cls-1" d="M331.93927,236.33077c-1.34876-.36325-2.72332-.63671-4.04215-1.10367q-135.507-47.95785-271.0032-95.95285c-8.43878-2.989-16.84247-6.10193-25.2797-9.09716C17.443,125.14735,13.4137,109.62681,22.57381,95.1,27.068,87.97287,33.33706,83.92762,40.24391,81.18624c15.51435-6.15765,31.28462-6.35991,47.08224-4.458,39.42929,4.74646,74.54349,21.60337,106.63613,47.55178,45.07045,36.44128,90.47216,72.33408,135.72682,108.47042.91379.72959,1.7636,1.566,2.64437,2.35233Q332.13611,235.7165,331.93927,236.33077Z"/><line class="cls-2" x1="129" y1="117" x2="221" y2="117"/><polygon class="cls-3" points="214.435 139.436 253.291 117.002 214.435 94.564 214.435 139.436"/></svg>