<svg id="Lift" xmlns="http://www.w3.org/2000/svg" viewBox="0 0 350 300"><defs><style>.cls-1{fill:#545459;}.cls-2{fill:none;stroke:#fff;stroke-miterlimit:10;stroke-width:6px;}.cls-3{fill:#fff;}</style></defs><title>icons_lift</title><path class="cls-1" d="M331.93927,261.9386c-1.34876-.36325-2.72332-.63671-4.04215-1.10367q-135.507-47.95785-271.0032-95.95285c-8.43878-2.989-16.84247-6.10193-25.2797-9.09716-14.17127-5.02973-18.20052-20.55027-9.04041-35.077,4.49415-7.12717,10.76325-11.17242,17.67009-13.91379,15.51435-6.15765,31.28462-6.35991,47.08224-4.458,39.42929,4.74646,74.54349,21.60337,106.63613,47.55178,45.07045,36.44128,90.47216,72.33408,135.72682,108.47042.91379.72959,1.7636,1.566,2.64437,2.35233Q332.13611,261.32433,331.93927,261.9386Z"/><line class="cls-2" x1="175" y1="166" x2="175" y2="74"/><polygon class="cls-3" points="197.436 80.565 175.002 41.709 152.564 80.565 197.436 80.565"/></svg>