<svg id="Layer_1" data-name="Layer 1" xmlns="http://www.w3.org/2000/svg" viewBox="0 0 75 75"><defs><style>.cls-1,.cls-2{fill:#d5d5d5;}.cls-1{opacity:0.5;}</style></defs><title>icons_skydive</title><path class="cls-1" d="M45.67948,43.43489c-.05567.055-.1127.10858-.17662.16184L34.46792,70.96711c5.30358-5.06889,9.79281-18.739,13.63881-21.21053,4.103-2.63615,14.25661-2.664,19.53407-2.47981a100.13017,100.13017,0,0,0-8.30121-17.50335Z"/><path class="cls-1" d="M31.56547,29.32054,45.2273,15.6594c-.792-.4838-1.63076-.97447-2.50387-1.46583a104.76564,104.76564,0,0,0-15.00052-6.8371c.18452,5.27712.157,15.43243-2.47981,19.53648C22.77256,30.7386,9.10421,35.22749,4.03463,40.53072L31.404,29.49508C31.45826,29.4329,31.51118,29.37517,31.56547,29.32054Z"/><path class="cls-1" d="M35.93238,38.41479,8.28986,49.56c4.3511,2.80178,9.60485,6.1437,10.30581,6.84466s4.0422,5.954,6.844,10.30512L36.58523,39.0673Z"/><circle class="cls-2" cx="63.56088" cy="11.43717" r="7.72906" transform="translate(3.55249 35.3074) rotate(-31.89241)"/><path class="cls-2" d="M33.5876,71.31072,44.93282,43.17444a2.6251,2.6251,0,0,0,.26045-.22541L59.46775,28.67455a99.16094,99.16094,0,0,1,8.91867,18.63107c.09174.25186.18314.50476.2742.76075a2.74879,2.74879,0,0,0,5.17953-1.84277C68.61766,31.55467,62.50592,23.32012,62.385,23.15485a2.75993,2.75993,0,0,0-.54909-.55046c-.00859-.00928-.01615-.01959-.02474-.02749l-9.38735-9.38735c-.00927-.00928-.0189-.01684-.02818-.02543a2.71409,2.71409,0,0,0-.55046-.54874V12.615c-.16459-.12061-8.39948-6.232-23.06807-11.45449a2.74863,2.74863,0,1,0-1.84277,5.17919c.257.0914.50751.18383.76006.27557A104.98146,104.98146,0,0,1,43.0598,13.59466c1.3222.74219,2.41144,1.39986,3.26564,1.93829L32.05133,29.8064a2.62513,2.62513,0,0,0-.22541.26046L3.689,41.41207a4.33576,4.33576,0,0,0-.6477.33227A4.29287,4.29287,0,0,0,6.902,49.379l.68069-.27454L36.09559,37.60766,37.392,38.9034,25.89527,67.4173l-.27454.68034a4.29254,4.29254,0,0,0,7.63323,3.8618A4.22707,4.22707,0,0,0,33.5876,71.31072Z"/></svg>